<svg preserveAspectRatio="none" overflow="visible" style="display: block;" width="14" height="15" viewBox="0 0 14 15" fill="none" xmlns="http://www.w3.org/2000/svg">
<g id="Group">
<path id="Vector" fill-rule="evenodd" clip-rule="evenodd" d="M10.8377 1.7041V2.64771H12.3118H12.313V2.65015C12.7786 2.65137 13.2007 2.8418 13.5054 3.15063C13.8077 3.45703 13.9964 3.88062 13.9976 4.34937H14V4.35181V13.2959V13.2971H13.9976C13.9964 13.7659 13.8077 14.1919 13.5018 14.5007C13.1982 14.8059 12.7786 14.9963 12.3142 14.9976V15H12.3118H4.85048H4.84927V14.9976C4.3849 14.9963 3.96165 14.8059 3.65691 14.4971C3.35458 14.1907 3.16593 13.7671 3.16472 13.2983H3.1623V13.2959V11.2927H1.68817H1.68697V11.2903C1.2226 11.2891 0.799344 11.0986 0.494601 10.7898C0.192278 10.4834 0.00362788 10.0598 0.00241859 9.59106H0V9.58862V1.7041V1.70288H0.00241859C0.00362788 1.23291 0.193487 0.806885 0.498229 0.499268C0.801762 0.194092 1.22139 0.00366211 1.68576 0.00244141V0H1.68817H9.14952H9.15073V0.00244141C9.61631 0.00366211 10.0384 0.194092 10.3431 0.50293C10.6454 0.809326 10.8341 1.23291 10.8353 1.70166H10.8377V1.7041ZM9.55826 2.64771V1.7041V1.70166H9.56068C9.56068 1.59058 9.51352 1.48804 9.43854 1.41235C9.36478 1.33789 9.26199 1.29028 9.15194 1.29028V1.29272H9.15073H1.68938H1.68697V1.29028C1.57692 1.29028 1.47534 1.33789 1.40036 1.41357C1.3266 1.48804 1.27943 1.5918 1.27943 1.70288H1.28185V1.7041V9.58862V9.59106H1.27943C1.27943 9.70215 1.3266 9.80469 1.40157 9.88037C1.47534 9.95483 1.57813 10.0024 1.68817 10.0024V10H1.68938H3.16351V4.35181V4.35059H3.16593C3.16714 3.88062 3.357 3.45459 3.66174 3.14697C3.96528 2.8418 4.3849 2.65137 4.84927 2.65015V2.64771H4.85169H9.55826ZM12.7194 13.2959V4.35181V4.34937H12.7218C12.7218 4.23828 12.6746 4.13574 12.5996 4.06006C12.5259 3.9856 12.4231 3.93799 12.313 3.93799V3.94043H12.3118H4.85048H4.84806V3.93799C4.73802 3.93799 4.63643 3.9856 4.56146 4.06128C4.48769 4.13574 4.44053 4.2395 4.44053 4.35059H4.44295V4.35181V13.2959V13.2983H4.44053C4.44053 13.4094 4.48769 13.512 4.56267 13.5876C4.63643 13.6621 4.73922 13.7097 4.84927 13.7097V13.7073H4.85048H12.3118H12.3142V13.7097C12.4243 13.7097 12.5259 13.6621 12.6008 13.5864C12.6746 13.512 12.7218 13.4082 12.7218 13.2971H12.7194V13.2959Z" fill="white"/>
</g>
</svg>
